<svg width="96" height="96" viewBox="0 0 96 96" fill="none" xmlns="http://www.w3.org/2000/svg">
  <defs>
    <radialGradient id="orangeBody" cx="0" cy="0" r="1" gradientUnits="userSpaceOnUse" gradientTransform="translate(36 28) rotate(49) scale(42.5)">
      <stop offset="0" stop-color="#FFD27D"/>
      <stop offset="0.58" stop-color="#FF9A2F"/>
      <stop offset="1" stop-color="#EF6C00"/>
    </radialGradient>
    <linearGradient id="orangeLeaf" x1="55" y1="10" x2="83" y2="36" gradientUnits="userSpaceOnUse">
      <stop offset="0" stop-color="#8EF1A8"/>
      <stop offset="1" stop-color="#29B46F"/>
    </linearGradient>
    <mask id="orangeBiteMask">
      <rect width="96" height="96" fill="white"/>
      <circle cx="74" cy="35" r="10" fill="black"/>
      <circle cx="83" cy="48" r="8" fill="black"/>
      <circle cx="73" cy="59" r="6.5" fill="black"/>
    </mask>
  </defs>

  <path d="M46 14C46 8.477 50.477 4 56 4C61.523 4 66 8.477 66 14V18H46V14Z" fill="#4F3112"/>
  <path d="M61 10C69.6 10 77.7 13.8 83 20.3C76.1 21.1 68.7 18.8 62.9 13.9A33.6 33.6 0 0 1 61 10Z" fill="url(#orangeLeaf)"/>
  <path d="M68.5 20C64.1 20.8 59.7 23.2 56 26.8" stroke="#DDFFE8" stroke-opacity="0.72" stroke-width="2.4" stroke-linecap="round"/>

  <g mask="url(#orangeBiteMask)">
    <circle cx="48" cy="50" r="28" fill="url(#orangeBody)"/>
    <circle cx="48" cy="50" r="25.5" stroke="#FFC15E" stroke-width="3.8"/>
    <path d="M35 38C40.4 34.3 48.1 32.9 55.2 34.4" stroke="#FFF1BF" stroke-opacity="0.8" stroke-width="3" stroke-linecap="round"/>
    <path d="M31.5 48.5C40.6 43.7 53.1 43.5 62.5 48.5" stroke="#FFF7D7" stroke-opacity="0.38" stroke-width="2.6" stroke-linecap="round"/>
    <path d="M34 61C39.8 64.8 47.7 66.2 54.8 64.7" stroke="#D85800" stroke-opacity="0.26" stroke-width="3" stroke-linecap="round"/>
  </g>
</svg>
